<?xml version="1.0" encoding="UTF-8" standalone="no" ?>
<!DOCTYPE svg PUBLIC "-//W3C//DTD SVG 1.1//EN" "http://www.w3.org/Graphics/SVG/1.1/DTD/svg11.dtd">
<svg xmlns="http://www.w3.org/2000/svg" xmlns:xlink="http://www.w3.org/1999/xlink" version="1.1" width="434.2834375" height="91.82000000000001" xml:space="preserve">
<desc>Created with Fabric.js 1.6.0-rc.1</desc>
<defs></defs>
  <g transform="translate(172.37 36.72)">
   <text font-family="ADAMCG PRO" font-size="40" font-weight="normal" style="stroke: none; stroke-width: 1; stroke-dasharray: none; stroke-linecap: butt; stroke-linejoin: miter; stroke-miterlimit: 10; fill: #212126; fill-rule: nonzero; opacity: 1;" ><tspan x="-95.6" y="8.98" style="stroke: none; stroke-width: 0; stroke-dasharray: none; stroke-linecap: butt; stroke-linejoin: miter; stroke-miterlimit: 4; fill: #212126; fill-rule: ; opacity: 1;">O</tspan><tspan x="-61.65" y="8.98" style="stroke: none; stroke-width: 0; stroke-dasharray: none; stroke-linecap: butt; stroke-linejoin: miter; stroke-miterlimit: 4; fill: #212126; fill-rule: ; opacity: 1;">Y</tspan><tspan x="-34.13" y="8.98" style="stroke: none; stroke-width: 0; stroke-dasharray: none; stroke-linecap: butt; stroke-linejoin: miter; stroke-miterlimit: 4; fill: #212126; fill-rule: ; opacity: 1;">E</tspan><tspan x="-10.87" y="8.98" style="stroke: none; stroke-width: 0; stroke-dasharray: none; stroke-linecap: butt; stroke-linejoin: miter; stroke-miterlimit: 4; fill: #212126; fill-rule: ; opacity: 1;">L</tspan><tspan x="9.56" y="8.98" style="stroke: none; stroke-width: 0; stroke-dasharray: none; stroke-linecap: butt; stroke-linejoin: miter; stroke-miterlimit: 4; fill: #212126; fill-rule: ; opacity: 1;">E</tspan><tspan x="32.82" y="8.98" style="stroke: none; stroke-width: 0; stroke-dasharray: none; stroke-linecap: butt; stroke-linejoin: miter; stroke-miterlimit: 4; fill: #212126; fill-rule: ; opacity: 1;">Y</tspan><tspan x="60.34" y="8.98" style="stroke: none; stroke-width: 0; stroke-dasharray: none; stroke-linecap: butt; stroke-linejoin: miter; stroke-miterlimit: 4; fill: #212126; fill-rule: ; opacity: 1;">E</tspan><tspan x="83.6" y="8.98" style="stroke: none; stroke-width: 0; stroke-dasharray: none; stroke-linecap: butt; stroke-linejoin: miter; stroke-miterlimit: 4; fill: #212126; fill-rule: ; opacity: 1;"> </tspan></text>
 </g>
  <g transform="translate(285.72 62.72) scale(0.4 0.4)">
   <text font-family="ADAMCG PRO" font-size="40" font-weight="normal" style="stroke: none; stroke-width: 1; stroke-dasharray: none; stroke-linecap: butt; stroke-linejoin: miter; stroke-miterlimit: 10; fill: #000000; fill-rule: nonzero; opacity: 1;" ><tspan x="-346.9" y="8.98" style="stroke: none; stroke-width: 0; stroke-dasharray: none; stroke-linecap: butt; stroke-linejoin: miter; stroke-miterlimit: 4; fill: #000000; fill-rule: ; opacity: 1;">Y</tspan><tspan x="-319.38" y="8.98" style="stroke: none; stroke-width: 0; stroke-dasharray: none; stroke-linecap: butt; stroke-linejoin: miter; stroke-miterlimit: 4; fill: #000000; fill-rule: ; opacity: 1;">O</tspan><tspan x="-285.44" y="8.98" style="stroke: none; stroke-width: 0; stroke-dasharray: none; stroke-linecap: butt; stroke-linejoin: miter; stroke-miterlimit: 4; fill: #000000; fill-rule: ; opacity: 1;">U</tspan><tspan x="-257.8" y="8.98" style="stroke: none; stroke-width: 0; stroke-dasharray: none; stroke-linecap: butt; stroke-linejoin: miter; stroke-miterlimit: 4; fill: #000000; fill-rule: ; opacity: 1;">R</tspan><tspan x="-232.18" y="8.98" style="stroke: none; stroke-width: 0; stroke-dasharray: none; stroke-linecap: butt; stroke-linejoin: miter; stroke-miterlimit: 4; fill: #000000; fill-rule: ; opacity: 1;"> </tspan><tspan x="-220.19" y="8.98" style="stroke: none; stroke-width: 0; stroke-dasharray: none; stroke-linecap: butt; stroke-linejoin: miter; stroke-miterlimit: 4; fill: #000000; fill-rule: ; opacity: 1;">F</tspan><tspan x="-196.88" y="8.98" style="stroke: none; stroke-width: 0; stroke-dasharray: none; stroke-linecap: butt; stroke-linejoin: miter; stroke-miterlimit: 4; fill: #000000; fill-rule: ; opacity: 1;">A</tspan><tspan x="-169.09" y="8.98" style="stroke: none; stroke-width: 0; stroke-dasharray: none; stroke-linecap: butt; stroke-linejoin: miter; stroke-miterlimit: 4; fill: #000000; fill-rule: ; opacity: 1;">V</tspan><tspan x="-140.79" y="8.98" style="stroke: none; stroke-width: 0; stroke-dasharray: none; stroke-linecap: butt; stroke-linejoin: miter; stroke-miterlimit: 4; fill: #000000; fill-rule: ; opacity: 1;">O</tspan><tspan x="-106.85" y="8.98" style="stroke: none; stroke-width: 0; stroke-dasharray: none; stroke-linecap: butt; stroke-linejoin: miter; stroke-miterlimit: 4; fill: #000000; fill-rule: ; opacity: 1;">U</tspan><tspan x="-79.21" y="8.98" style="stroke: none; stroke-width: 0; stroke-dasharray: none; stroke-linecap: butt; stroke-linejoin: miter; stroke-miterlimit: 4; fill: #000000; fill-rule: ; opacity: 1;">R</tspan><tspan x="-53.58" y="8.98" style="stroke: none; stroke-width: 0; stroke-dasharray: none; stroke-linecap: butt; stroke-linejoin: miter; stroke-miterlimit: 4; fill: #000000; fill-rule: ; opacity: 1;">I</tspan><tspan x="-42.8" y="8.98" style="stroke: none; stroke-width: 0; stroke-dasharray: none; stroke-linecap: butt; stroke-linejoin: miter; stroke-miterlimit: 4; fill: #000000; fill-rule: ; opacity: 1;">T</tspan><tspan x="-19.44" y="8.98" style="stroke: none; stroke-width: 0; stroke-dasharray: none; stroke-linecap: butt; stroke-linejoin: miter; stroke-miterlimit: 4; fill: #000000; fill-rule: ; opacity: 1;">E</tspan><tspan x="3.82" y="8.98" style="stroke: none; stroke-width: 0; stroke-dasharray: none; stroke-linecap: butt; stroke-linejoin: miter; stroke-miterlimit: 4; fill: #000000; fill-rule: ; opacity: 1;"> </tspan><tspan x="15.81" y="8.98" style="stroke: none; stroke-width: 0; stroke-dasharray: none; stroke-linecap: butt; stroke-linejoin: miter; stroke-miterlimit: 4; fill: #000000; fill-rule: ; opacity: 1;">W</tspan><tspan x="60.63" y="8.98" style="stroke: none; stroke-width: 0; stroke-dasharray: none; stroke-linecap: butt; stroke-linejoin: miter; stroke-miterlimit: 4; fill: #000000; fill-rule: ; opacity: 1;">E</tspan><tspan x="83.9" y="8.98" style="stroke: none; stroke-width: 0; stroke-dasharray: none; stroke-linecap: butt; stroke-linejoin: miter; stroke-miterlimit: 4; fill: #000000; fill-rule: ; opacity: 1;">B</tspan><tspan x="107.41" y="8.98" style="stroke: none; stroke-width: 0; stroke-dasharray: none; stroke-linecap: butt; stroke-linejoin: miter; stroke-miterlimit: 4; fill: #000000; fill-rule: ; opacity: 1;"> </tspan><tspan x="119.4" y="8.98" style="stroke: none; stroke-width: 0; stroke-dasharray: none; stroke-linecap: butt; stroke-linejoin: miter; stroke-miterlimit: 4; fill: #000000; fill-rule: ; opacity: 1;">D</tspan><tspan x="146.4" y="8.98" style="stroke: none; stroke-width: 0; stroke-dasharray: none; stroke-linecap: butt; stroke-linejoin: miter; stroke-miterlimit: 4; fill: #000000; fill-rule: ; opacity: 1;">E</tspan><tspan x="169.66" y="8.98" style="stroke: none; stroke-width: 0; stroke-dasharray: none; stroke-linecap: butt; stroke-linejoin: miter; stroke-miterlimit: 4; fill: #000000; fill-rule: ; opacity: 1;">V</tspan><tspan x="197.96" y="8.98" style="stroke: none; stroke-width: 0; stroke-dasharray: none; stroke-linecap: butt; stroke-linejoin: miter; stroke-miterlimit: 4; fill: #000000; fill-rule: ; opacity: 1;">E</tspan><tspan x="221.22" y="8.98" style="stroke: none; stroke-width: 0; stroke-dasharray: none; stroke-linecap: butt; stroke-linejoin: miter; stroke-miterlimit: 4; fill: #000000; fill-rule: ; opacity: 1;">L</tspan><tspan x="241.65" y="8.98" style="stroke: none; stroke-width: 0; stroke-dasharray: none; stroke-linecap: butt; stroke-linejoin: miter; stroke-miterlimit: 4; fill: #000000; fill-rule: ; opacity: 1;">O</tspan><tspan x="275.6" y="8.98" style="stroke: none; stroke-width: 0; stroke-dasharray: none; stroke-linecap: butt; stroke-linejoin: miter; stroke-miterlimit: 4; fill: #000000; fill-rule: ; opacity: 1;">P</tspan><tspan x="298.02" y="8.98" style="stroke: none; stroke-width: 0; stroke-dasharray: none; stroke-linecap: butt; stroke-linejoin: miter; stroke-miterlimit: 4; fill: #000000; fill-rule: ; opacity: 1;">E</tspan><tspan x="321.28" y="8.98" style="stroke: none; stroke-width: 0; stroke-dasharray: none; stroke-linecap: butt; stroke-linejoin: miter; stroke-miterlimit: 4; fill: #000000; fill-rule: ; opacity: 1;">R</tspan></text>
 </g>
  <g transform="translate(341.25 36.18) scale(1.03 0.98)">
   <text font-family="Severina" font-size="40" font-weight="normal" style="stroke: none; stroke-width: 1; stroke-dasharray: none; stroke-linecap: butt; stroke-linejoin: miter; stroke-miterlimit: 10; fill: #856252; fill-rule: nonzero; opacity: 1;" ><tspan x="-80.32" y="8.98" style="stroke: none; stroke-width: 0; stroke-dasharray: none; stroke-linecap: butt; stroke-linejoin: miter; stroke-miterlimit: 4; fill: #856252; fill-rule: ; opacity: 1;">O</tspan><tspan x="-56.92" y="8.98" style="stroke: none; stroke-width: 0; stroke-dasharray: none; stroke-linecap: butt; stroke-linejoin: miter; stroke-miterlimit: 4; fill: #856252; fill-rule: ; opacity: 1;">Y</tspan><tspan x="-35.8" y="8.98" style="stroke: none; stroke-width: 0; stroke-dasharray: none; stroke-linecap: butt; stroke-linejoin: miter; stroke-miterlimit: 4; fill: #856252; fill-rule: ; opacity: 1;">E</tspan><tspan x="-15.6" y="8.98" style="stroke: none; stroke-width: 0; stroke-dasharray: none; stroke-linecap: butt; stroke-linejoin: miter; stroke-miterlimit: 4; fill: #856252; fill-rule: ; opacity: 1;">D</tspan><tspan x="8.76" y="8.98" style="stroke: none; stroke-width: 0; stroke-dasharray: none; stroke-linecap: butt; stroke-linejoin: miter; stroke-miterlimit: 4; fill: #856252; fill-rule: ; opacity: 1;">A</tspan><tspan x="35.8" y="8.98" style="stroke: none; stroke-width: 0; stroke-dasharray: none; stroke-linecap: butt; stroke-linejoin: miter; stroke-miterlimit: 4; fill: #856252; fill-rule: ; opacity: 1;">Y</tspan><tspan x="56.92" y="8.98" style="stroke: none; stroke-width: 0; stroke-dasharray: none; stroke-linecap: butt; stroke-linejoin: miter; stroke-miterlimit: 4; fill: #856252; fill-rule: ; opacity: 1;">O</tspan></text>
 </g>
<g style="stroke: none; stroke-width: 1; stroke-dasharray: none; stroke-linecap: butt; stroke-linejoin: miter; stroke-miterlimit: 10; fill: none; fill-rule: nonzero; opacity: 1;" transform="translate(10 10) scale(0.14 0.14)" >
  <path d="M 241.907 8.591 c -100.815 0 -183.808 81.258 -183.808 182.073 c 0 92.827 54.978 156.97 54.978 239.44 c 0 12.183 -7.623 39.141 -13.036 56.751 c -2.533 8.238 3.656 16.556 12.274 16.556 h 165.701 c 10.122 0 18.327 -8.205 18.327 -18.327 v -27.49 c 0 -15.182 12.307 -27.49 27.49 -27.49 h 45.817 c 20.243 0 36.653 -16.41 36.653 -36.653 v -66.702 c 0 -3.945 2.525 -7.446 6.267 -8.694 l 26.379 -8.793 c 12.062 -4.02 18.17 -17.44 13.28 -29.177 l -31.122 -74.692 c -3.723 -8.934 -5.64 -18.518 -5.64 -28.197 v -12.829 c 0 -86.033 -69.743 -155.776 -155.776 -155.776 L 241.907 8.591 z" style="stroke: none; stroke-width: 1; stroke-dasharray: none; stroke-linecap: butt; stroke-linejoin: miter; stroke-miterlimit: 10; fill: #f7f7f7; fill-rule: nonzero; opacity: 1;" transform=" matrix(1 0 0 1 0 0) " stroke-linecap="round" />
  <path d="M 195.789 486.852 c 4.761 -17.608 11.468 -44.567 11.468 -56.75 c 0 -82.47 -48.364 -146.613 -48.364 -239.44 c 0 -89.379 57.424 -163.254 132.244 -178.893 c -10.159 -2.082 -20.676 -3.18 -31.451 -3.18 h -17.783 c -100.815 0 -183.808 81.258 -183.808 182.073 c 0 92.827 54.978 156.97 54.978 239.44 c 0 12.183 -7.623 39.141 -13.036 56.75 c -2.531 8.238 3.656 16.557 12.274 16.557 h 94.276 C 199.005 503.409 193.561 495.09 195.789 486.852 z" style="stroke: none; stroke-width: 1; stroke-dasharray: none; stroke-linecap: butt; stroke-linejoin: miter; stroke-miterlimit: 10; fill: #fffff2; fill-rule: nonzero; opacity: 1;" transform=" matrix(1 0 0 1 0 0) " stroke-linecap="round" />
  <circle cx="241.35999999999999" cy="201.01999999999998" r="137.45" style="stroke: none; stroke-width: 1; stroke-dasharray: none; stroke-linecap: butt; stroke-linejoin: miter; stroke-miterlimit: 10; fill: #876353; fill-rule: nonzero; opacity: 1;" transform="  matrix(1 0 0 1 0 0) "/>
  <circle cx="241.35999999999999" cy="201.01999999999998" r="82.47" style="stroke: none; stroke-width: 1; stroke-dasharray: none; stroke-linecap: butt; stroke-linejoin: miter; stroke-miterlimit: 10; fill: #eff5eb; fill-rule: nonzero; opacity: 1;" transform="  matrix(1 0 0 1 0 0) "/>
  <path d="M 187.255 327.403 c -13.31 -42.094 -28.362 -84.953 -28.362 -136.74 c 0 -46.389 15.473 -88.598 40.815 -120.66 c -55.546 17.645 -95.794 69.627 -95.794 131.017 C 103.913 257.718 138.246 306.394 187.255 327.403 z" style="stroke: none; stroke-width: 1; stroke-dasharray: none; stroke-linecap: butt; stroke-linejoin: miter; stroke-miterlimit: 10; fill: #f7f7f7; fill-rule: nonzero; opacity: 1;" transform=" matrix(1 0 0 1 0 0) " stroke-linecap="round" />
  <path d="M 103.977 375.177 c 0.771 0 1.555 -0.104 2.336 -0.324 c 4.567 -1.287 7.225 -6.032 5.938 -10.598 c -4.954 -17.576 -11.419 -34.265 -17.671 -50.406 c -13.713 -35.397 -27.892 -71.998 -27.892 -121.991 c 0 -96.317 78.359 -174.676 174.676 -174.676 h 18.327 c 23.503 0 45.956 5.371 66.741 15.965 c 4.228 2.155 9.4 0.474 11.555 -3.752 s 0.474 -9.4 -3.754 -11.555 C 311.009 6.001 285.929 0 259.69 0 h -18.327 C 136.437 0 50.915 84.674 49.523 189.274 c -0.011 0.18 -0.017 0.363 -0.017 0.546 v 2.037 c 0 53.204 14.769 91.328 29.052 128.198 c 6.389 16.492 12.424 32.069 17.156 48.86 C 96.782 372.703 100.227 375.177 103.977 375.177 z" style="stroke: none; stroke-width: 1; stroke-dasharray: none; stroke-linecap: butt; stroke-linejoin: miter; stroke-miterlimit: 10; fill: rgb(0,0,0); fill-rule: nonzero; opacity: 1;" transform=" matrix(1 0 0 1 0 0) " stroke-linecap="round" />
  <path d="M 351.477 49.301 c 3.486 2.783 6.883 5.76 10.098 8.846 c 1.665 1.599 3.807 2.393 5.947 2.393 c 2.259 0 4.512 -0.884 6.199 -2.642 c 3.285 -3.424 3.174 -8.861 -0.25 -12.146 c -3.591 -3.445 -7.382 -6.767 -11.273 -9.875 c -3.707 -2.961 -9.112 -2.357 -12.074 1.35 C 347.165 40.934 347.771 46.339 351.477 49.301 z" style="stroke: none; stroke-width: 1; stroke-dasharray: none; stroke-linecap: butt; stroke-linejoin: miter; stroke-miterlimit: 10; fill: rgb(0,0,0); fill-rule: nonzero; opacity: 1;" transform=" matrix(1 0 0 1 0 0) " stroke-linecap="round" />
  <path d="M 460.158 276.781 l -31.123 -74.695 c -3.303 -7.927 -4.978 -16.302 -4.978 -24.89 v -12.829 c 0 -32.936 -9.709 -64.717 -28.076 -91.905 c -2.656 -3.931 -7.997 -4.965 -11.927 -2.309 c -3.932 2.656 -4.965 7.996 -2.31 11.927 c 16.441 24.337 25.132 52.791 25.132 82.287 v 12.829 c 0 10.869 2.12 21.466 6.3 31.499 l 31.123 74.694 c 1.436 3.449 1.375 7.221 -0.173 10.619 c -1.547 3.4 -4.351 5.923 -7.895 7.104 l -26.379 8.793 c -7.261 2.42 -12.139 9.189 -12.139 16.843 v 66.701 c 0 15.473 -12.588 28.063 -28.063 28.063 h -45.817 c -19.895 0 -36.081 16.186 -36.081 36.081 v 27.49 c 0 5.369 -4.367 9.736 -9.736 9.736 h -165.7 c -1.872 0 -2.949 -1.081 -3.426 -1.726 c -0.47 -0.636 -1.175 -1.962 -0.637 -3.716 c 8.901 -28.958 13.414 -48.901 13.414 -59.275 c 0 -8.271 -0.442 -16.58 -1.313 -24.697 c -0.505 -4.717 -4.742 -8.128 -9.458 -7.625 c -4.718 0.506 -8.131 4.742 -7.625 9.459 c 0.806 7.512 1.215 15.203 1.215 22.864 c 0 8.295 -4.613 28.06 -12.656 54.226 c -2.012 6.546 -0.832 13.461 3.24 18.973 c 4.083 5.528 10.369 8.698 17.245 8.698 h 165.701 c 14.842 0 26.917 -12.075 26.917 -26.917 v -27.49 c 0 -10.421 8.478 -18.899 18.899 -18.899 h 45.817 c 24.947 0 45.244 -20.297 45.244 -45.244 v -66.702 c 0 -0.247 0.158 -0.466 0.392 -0.543 l 26.379 -8.793 c 8.005 -2.669 14.603 -8.604 18.099 -16.285 C 463.259 293.445 463.404 284.571 460.158 276.781 z" style="stroke: none; stroke-width: 1; stroke-dasharray: none; stroke-linecap: butt; stroke-linejoin: miter; stroke-miterlimit: 10; fill: rgb(0,0,0); fill-rule: nonzero; opacity: 1;" transform=" matrix(1 0 0 1 0 0) " stroke-linecap="round" />
  <path d="M 249.953 210.183 v -18.327 c 0 -14.842 -12.075 -26.917 -26.917 -26.917 c -14.842 0 -26.917 12.075 -26.917 26.917 v 18.327 c 0 14.842 12.075 26.917 26.917 26.917 C 237.879 237.101 249.953 225.026 249.953 210.183 z M 232.772 210.183 c 0 5.369 -4.367 9.736 -9.736 9.736 c -5.369 0 -9.736 -4.367 -9.736 -9.736 v -18.327 c 0 -5.369 4.367 -9.736 9.736 -9.736 c 5.369 0 9.736 4.367 9.736 9.736 V 210.183 z" style="stroke: none; stroke-width: 1; stroke-dasharray: none; stroke-linecap: butt; stroke-linejoin: miter; stroke-miterlimit: 10; fill: rgb(0,0,0); fill-rule: nonzero; opacity: 1;" transform=" matrix(1 0 0 1 0 0) " stroke-linecap="round" />
  <path d="M 304.933 118.55 v -18.327 c 0 -14.842 -12.075 -26.917 -26.917 -26.917 s -26.917 12.075 -26.917 26.917 v 18.327 c 0 14.842 12.075 26.917 26.917 26.917 S 304.933 133.393 304.933 118.55 z M 287.752 118.55 c 0 5.369 -4.367 9.736 -9.736 9.736 c -5.369 0 -9.736 -4.367 -9.736 -9.736 v -18.327 c 0 -5.369 4.367 -9.736 9.736 -9.736 c 5.369 0 9.736 4.367 9.736 9.736 V 118.55 z" style="stroke: none; stroke-width: 1; stroke-dasharray: none; stroke-linecap: butt; stroke-linejoin: miter; stroke-miterlimit: 10; fill: rgb(0,0,0); fill-rule: nonzero; opacity: 1;" transform=" matrix(1 0 0 1 0 0) " stroke-linecap="round" />
  <path d="M 185.81 100.224 c 0 -14.842 -12.075 -26.917 -26.917 -26.917 c -14.842 0 -26.917 12.075 -26.917 26.917 v 18.327 c 0 14.842 12.075 26.917 26.917 26.917 s 26.917 -12.075 26.917 -26.917 V 100.224 z M 168.629 118.55 c 0 5.369 -4.367 9.736 -9.736 9.736 c -5.369 0 -9.736 -4.367 -9.736 -9.736 v -18.327 c 0 -5.369 4.367 -9.736 9.736 -9.736 c 5.369 0 9.736 4.367 9.736 9.736 V 118.55 z" style="stroke: none; stroke-width: 1; stroke-dasharray: none; stroke-linecap: butt; stroke-linejoin: miter; stroke-miterlimit: 10; fill: rgb(0,0,0); fill-rule: nonzero; opacity: 1;" transform=" matrix(1 0 0 1 0 0) " stroke-linecap="round" />
  <path d="M 369.077 210.183 v -18.327 c 0 -14.842 -12.075 -26.917 -26.917 -26.917 s -26.917 12.075 -26.917 26.917 v 18.327 c 0 14.842 12.075 26.917 26.917 26.917 S 369.077 225.026 369.077 210.183 z M 351.895 210.183 c 0 5.369 -4.367 9.736 -9.736 9.736 c -5.369 0 -9.736 -4.367 -9.736 -9.736 v -18.327 c 0 -5.369 4.367 -9.736 9.736 -9.736 c 5.369 0 9.736 4.367 9.736 9.736 V 210.183 z" style="stroke: none; stroke-width: 1; stroke-dasharray: none; stroke-linecap: butt; stroke-linejoin: miter; stroke-miterlimit: 10; fill: rgb(0,0,0); fill-rule: nonzero; opacity: 1;" transform=" matrix(1 0 0 1 0 0) " stroke-linecap="round" />
  <path d="M 323.833 328.734 c 14.842 0 26.917 -12.075 26.917 -26.917 V 283.49 c 0 -14.842 -12.075 -26.917 -26.917 -26.917 s -26.917 12.075 -26.917 26.917 v 18.327 C 296.915 316.659 308.99 328.734 323.833 328.734 z M 314.097 283.49 c 0 -5.369 4.367 -9.736 9.736 -9.736 s 9.736 4.367 9.736 9.736 v 18.327 c 0 5.369 -4.367 9.736 -9.736 9.736 s -9.736 -4.367 -9.736 -9.736 V 283.49 z" style="stroke: none; stroke-width: 1; stroke-dasharray: none; stroke-linecap: butt; stroke-linejoin: miter; stroke-miterlimit: 10; fill: rgb(0,0,0); fill-rule: nonzero; opacity: 1;" transform=" matrix(1 0 0 1 0 0) " stroke-linecap="round" />
  <path d="M 131.976 283.49 v 18.327 c 0 14.842 12.075 26.917 26.917 26.917 s 26.917 -12.075 26.917 -26.917 V 283.49 c 0 -14.842 -12.075 -26.917 -26.917 -26.917 C 144.051 256.573 131.976 268.648 131.976 283.49 z M 149.157 283.49 c 0 -5.369 4.367 -9.736 9.736 -9.736 c 5.369 0 9.736 4.367 9.736 9.736 v 18.327 c 0 5.369 -4.367 9.736 -9.736 9.736 c -5.369 0 -9.736 -4.367 -9.736 -9.736 V 283.49 z" style="stroke: none; stroke-width: 1; stroke-dasharray: none; stroke-linecap: butt; stroke-linejoin: miter; stroke-miterlimit: 10; fill: rgb(0,0,0); fill-rule: nonzero; opacity: 1;" transform=" matrix(1 0 0 1 0 0) " stroke-linecap="round" />
  <path d="M 168.056 237.101 c 4.744 0 8.591 -3.846 8.591 -8.591 v -54.98 c 0 -2.978 -1.542 -5.743 -4.074 -7.308 c -2.533 -1.565 -5.695 -1.708 -8.358 -0.376 l -18.327 9.163 c -4.244 2.122 -5.964 7.281 -3.842 11.525 c 2.122 4.244 7.28 5.964 11.525 3.842 l 5.894 -2.947 v 41.08 C 159.466 233.254 163.312 237.101 168.056 237.101 z" style="stroke: none; stroke-width: 1; stroke-dasharray: none; stroke-linecap: butt; stroke-linejoin: miter; stroke-miterlimit: 10; fill: rgb(0,0,0); fill-rule: nonzero; opacity: 1;" transform=" matrix(1 0 0 1 0 0) " stroke-linecap="round" />
  <path d="M 268.853 328.734 c 4.745 0 8.591 -3.846 8.591 -8.591 v -54.98 c 0 -2.978 -1.542 -5.742 -4.074 -7.308 c -2.534 -1.566 -5.697 -1.708 -8.359 -0.376 l -18.327 9.163 c -4.244 2.121 -5.964 7.281 -3.842 11.525 c 2.121 4.244 7.281 5.964 11.525 3.842 l 5.894 -2.947 v 41.08 C 260.262 324.887 264.109 328.734 268.853 328.734 z" style="stroke: none; stroke-width: 1; stroke-dasharray: none; stroke-linecap: butt; stroke-linejoin: miter; stroke-miterlimit: 10; fill: rgb(0,0,0); fill-rule: nonzero; opacity: 1;" transform=" matrix(1 0 0 1 0 0) " stroke-linecap="round" />
  <path d="M 287.179 237.101 c 4.745 0 8.591 -3.846 8.591 -8.591 v -54.98 c 0 -2.978 -1.542 -5.743 -4.074 -7.308 c -2.535 -1.566 -5.696 -1.707 -8.359 -0.376 l -18.327 9.163 c -4.243 2.122 -5.963 7.281 -3.842 11.525 c 2.121 4.245 7.28 5.964 11.526 3.842 l 5.894 -2.947 v 41.08 C 278.589 233.254 282.435 237.101 287.179 237.101 z" style="stroke: none; stroke-width: 1; stroke-dasharray: none; stroke-linecap: butt; stroke-linejoin: miter; stroke-miterlimit: 10; fill: rgb(0,0,0); fill-rule: nonzero; opacity: 1;" transform=" matrix(1 0 0 1 0 0) " stroke-linecap="round" />
  <path d="M 223.036 145.468 c 4.744 0 8.591 -3.846 8.591 -8.591 v -54.98 c 0 -2.978 -1.542 -5.743 -4.074 -7.308 c -2.533 -1.565 -5.695 -1.707 -8.358 -0.376 l -18.327 9.163 c -4.244 2.122 -5.964 7.281 -3.842 11.525 c 2.122 4.244 7.28 5.964 11.525 3.842 l 5.894 -2.947 v 41.08 C 214.446 141.621 218.292 145.468 223.036 145.468 z" style="stroke: none; stroke-width: 1; stroke-dasharray: none; stroke-linecap: butt; stroke-linejoin: miter; stroke-miterlimit: 10; fill: rgb(0,0,0); fill-rule: nonzero; opacity: 1;" transform=" matrix(1 0 0 1 0 0) " stroke-linecap="round" />
  <path d="M 223.036 328.734 c 4.744 0 8.591 -3.846 8.591 -8.591 v -54.98 c 0 -2.978 -1.542 -5.743 -4.074 -7.308 s -5.695 -1.707 -8.358 -0.376 l -18.327 9.163 c -4.244 2.122 -5.964 7.281 -3.842 11.525 c 2.122 4.244 7.28 5.964 11.525 3.842 l 5.894 -2.947 v 41.08 C 214.446 324.887 218.292 328.734 223.036 328.734 z" style="stroke: none; stroke-width: 1; stroke-dasharray: none; stroke-linecap: butt; stroke-linejoin: miter; stroke-miterlimit: 10; fill: rgb(0,0,0); fill-rule: nonzero; opacity: 1;" transform=" matrix(1 0 0 1 0 0) " stroke-linecap="round" />
  <path d="M 319.991 83.377 c -4.243 2.122 -5.963 7.281 -3.842 11.525 c 2.121 4.245 7.281 5.964 11.526 3.842 l 5.894 -2.947 v 41.08 c 0 4.744 3.845 8.591 8.591 8.591 c 4.745 0 8.591 -3.846 8.591 -8.591 v -54.98 c 0 -2.978 -1.542 -5.743 -4.074 -7.308 c -2.535 -1.566 -5.697 -1.707 -8.359 -0.376 L 319.991 83.377 z" style="stroke: none; stroke-width: 1; stroke-dasharray: none; stroke-linecap: butt; stroke-linejoin: miter; stroke-miterlimit: 10; fill: rgb(0,0,0); fill-rule: nonzero; opacity: 1;" transform=" matrix(1 0 0 1 0 0) " stroke-linecap="round" />
  <path d="M 122.24 237.101 c 4.744 0 8.591 -3.846 8.591 -8.591 v -54.98 c 0 -2.978 -1.542 -5.743 -4.074 -7.308 c -2.533 -1.565 -5.696 -1.708 -8.358 -0.376 l -18.327 9.163 c -4.244 2.122 -5.964 7.281 -3.842 11.525 c 2.121 4.244 7.281 5.964 11.525 3.842 l 5.894 -2.947 v 41.08 C 113.649 233.254 117.496 237.101 122.24 237.101 z" style="stroke: none; stroke-width: 1; stroke-dasharray: none; stroke-linecap: butt; stroke-linejoin: miter; stroke-miterlimit: 10; fill: rgb(0,0,0); fill-rule: nonzero; opacity: 1;" transform=" matrix(1 0 0 1 0 0) " stroke-linecap="round" />
</g>
</svg>